<svg width="97" height="31" viewBox="0 0 97 31" fill="none" xmlns="http://www.w3.org/2000/svg">
<path fill-rule="evenodd" clip-rule="evenodd" d="M25.9592 28.4795C31.0666 28.4795 35.1758 24.359 35.1758 19.2937H35.1759V1.46221H37.3554V19.2936C37.3554 25.5503 32.2569 30.6409 25.9477 30.6409C23.2728 30.6409 20.8494 29.719 18.8989 28.188C16.9485 29.719 14.4676 30.6409 11.7928 30.6409C5.48364 30.6409 0.304932 25.5503 0.304932 19.2936V1.46221H2.48435V19.2937C2.48435 24.3588 6.6623 28.4795 11.7698 28.4795C13.8271 28.4795 15.7463 27.8028 17.2852 26.6732C15.5646 24.687 14.4712 22.1115 14.4712 19.2937L14.475 4.67671C14.475 2.29308 16.4303 0.353882 18.8338 0.353882C21.2373 0.353882 23.1927 2.29321 23.1927 4.67671L23.1889 19.2937C23.1889 22.1113 22.1644 24.687 20.4437 26.6732C21.9827 27.8028 23.9019 28.4795 25.9592 28.4795ZM16.6506 19.2935C16.6506 21.5422 17.4724 23.6022 18.83 25.2006C20.1877 23.6022 21.0094 21.5422 21.0094 19.2937L21.0132 4.67657C21.0132 3.48456 20.0355 2.51523 18.8338 2.51523C17.6321 2.51523 16.6544 3.48456 16.6544 4.67657L16.6506 19.2935ZM43.897 1.40366H46.0764V30.0684H43.897V1.40366ZM54.794 6.34332C57.0547 3.06202 60.8563 0.903919 65.157 0.903919V3.06932C59.4435 3.06932 54.7952 7.67866 54.7952 13.3443H54.794V30.0684H52.6146V1.40366H54.794V6.34332ZM90.3705 6.05059C90.1344 5.77962 89.8873 5.51502 89.6281 5.25771C83.786 -0.54135 74.2802 -0.54135 68.4381 5.25771C62.5961 11.0568 62.5961 20.4925 68.4381 26.2915C74.2794 32.0898 83.7832 32.0906 89.6255 26.294L88.0844 24.7642C83.3515 29.4597 75.8074 29.7024 70.7829 25.4938L79.8011 16.542L90.3705 6.05059ZM69.9792 6.78749C65.2465 11.4854 65.0012 18.9758 69.2418 23.9641L87.2833 6.05546C82.258 1.84607 74.712 2.08958 69.9792 6.78749ZM92.3855 1.64988H93.148V3.59894H93.3802V1.64988H94.146V1.43557H92.3855V1.64988ZM95.6775 3.31311L96.4367 1.43557H96.7803V3.59894H96.5544V1.67273L95.7788 3.59894H95.5662L94.7873 1.66624V3.59894H94.5649V1.43557H94.9216L95.6775 3.31311Z" fill="black"/>
</svg>
