<?xml version="1.0" encoding="UTF-8"?>
<svg xmlns="http://www.w3.org/2000/svg" xmlns:xlink="http://www.w3.org/1999/xlink" width="154px" height="90px" viewBox="0 0 154 90" version="1.1">
<g id="surface1">
<path style=" stroke:none;fill-rule:evenodd;fill:rgb(0%,0%,0%);fill-opacity:1;" d="M 55.597656 57.480469 C 60.671875 57.480469 64.753906 53.359375 64.753906 48.292969 L 64.753906 30.460938 L 66.921875 30.460938 L 66.921875 48.292969 C 66.921875 54.550781 61.855469 59.640625 55.585938 59.640625 C 52.929688 59.640625 50.519531 58.71875 48.582031 57.1875 C 46.644531 58.71875 44.179688 59.640625 41.523438 59.640625 C 35.253906 59.640625 30.109375 54.550781 30.109375 48.292969 L 30.109375 30.460938 L 32.273438 30.460938 L 32.273438 48.292969 C 32.273438 53.359375 36.425781 57.480469 41.5 57.480469 C 43.542969 57.480469 45.449219 56.804688 46.980469 55.671875 C 45.269531 53.6875 44.183594 51.113281 44.183594 48.292969 L 44.1875 33.675781 C 44.1875 31.292969 46.128906 29.355469 48.519531 29.355469 C 50.90625 29.355469 52.847656 31.292969 52.847656 33.675781 L 52.84375 48.292969 C 52.84375 51.113281 51.828125 53.6875 50.117188 55.671875 C 51.648438 56.804688 53.554688 57.480469 55.597656 57.480469 Z M 46.347656 48.292969 C 46.347656 50.542969 47.167969 52.601562 48.515625 54.199219 C 49.863281 52.601562 50.679688 50.542969 50.679688 48.292969 L 50.683594 33.675781 C 50.683594 32.484375 49.710938 31.515625 48.519531 31.515625 C 47.324219 31.515625 46.351562 32.484375 46.351562 33.675781 Z M 73.421875 30.402344 L 75.585938 30.402344 L 75.585938 59.070312 L 73.421875 59.070312 Z M 84.246094 35.34375 C 86.492188 32.0625 90.269531 29.902344 94.542969 29.902344 L 94.542969 32.070312 C 88.867188 32.070312 84.25 36.679688 84.25 42.34375 L 84.246094 42.34375 L 84.246094 59.070312 L 82.082031 59.070312 L 82.082031 30.402344 L 84.246094 30.402344 Z M 119.59375 35.050781 C 119.359375 34.78125 119.113281 34.515625 118.855469 34.257812 C 113.050781 28.457031 103.609375 28.457031 97.804688 34.257812 C 92 40.058594 92 49.492188 97.804688 55.292969 C 103.605469 61.089844 113.050781 61.089844 118.851562 55.292969 L 117.324219 53.765625 C 112.621094 58.460938 105.125 58.703125 100.132812 54.492188 L 109.09375 45.542969 Z M 99.335938 35.789062 C 94.632812 40.484375 94.386719 47.976562 98.601562 52.964844 L 116.527344 35.054688 C 111.535156 30.847656 104.035156 31.089844 99.335938 35.789062 Z M 121.597656 30.648438 L 122.351562 30.648438 L 122.351562 32.597656 L 122.585938 32.597656 L 122.585938 30.648438 L 123.34375 30.648438 L 123.34375 30.4375 L 121.597656 30.4375 Z M 124.867188 32.3125 L 125.621094 30.4375 L 125.960938 30.4375 L 125.960938 32.597656 L 125.738281 32.597656 L 125.738281 30.671875 L 124.96875 32.597656 L 124.757812 32.597656 L 123.984375 30.667969 L 123.984375 32.597656 L 123.761719 32.597656 L 123.761719 30.4375 L 124.117188 30.4375 Z M 124.867188 32.3125 "/>
</g>
</svg>
